<svg xmlns="http://www.w3.org/2000/svg" width="71" height="47" viewBox="0 0 71 47"><defs><clipPath id="2knka"><path d="M1.404 42.885C.438 40.603 0 37.357.175 32.88c.176-4.037.878-8.512 1.93-12.725.966-4.037 2.37-7.81 3.95-10.707C12.198-1.434 18.868.321 26.855 2.34c2.544.615 5.265 1.316 8.073 1.58h.878c2.808-.264 5.529-.965 8.073-1.58 7.987-2.106 14.656-3.774 20.8 7.02 1.58 2.897 2.896 6.67 3.949 10.708 1.053 4.212 1.755 8.688 1.93 12.725.176 4.564-.263 7.81-1.228 10.004-.965 2.282-2.457 3.51-4.213 4.037-1.667.438-3.598.175-5.616-.615-3.423-1.403-7.372-4.387-11.234-7.985-2.72-2.633-7.81-3.95-12.9-3.95-5.09 0-10.18 1.317-12.9 3.95-3.862 3.598-7.812 6.582-11.234 7.985-2.019.879-3.95 1.053-5.617.615-1.843-.526-3.247-1.842-4.212-3.949zM4.3 41.393c.526 1.228 1.228 1.931 2.106 2.194.965.351 2.194.087 3.598-.439 2.984-1.14 6.582-3.95 10.18-7.284 3.423-3.159 9.303-4.826 15.183-4.826 5.88 0 11.76 1.667 15.095 5.001 3.51 3.335 7.108 6.056 10.18 7.285 1.404.526 2.632.702 3.598.439.877-.263 1.58-.966 2.106-2.195.79-1.842 1.14-4.563.965-8.6-.175-3.862-.877-8.073-1.843-12.111-.965-3.861-2.194-7.284-3.686-9.917C56.956 2.252 51.34 3.744 44.67 5.41c-2.72.703-5.529 1.405-8.688 1.668H34.665c-3.072-.263-5.88-.965-8.6-1.668-6.67-1.755-12.287-3.16-17.114 5.529-1.492 2.633-2.72 6.144-3.686 9.917a60.555 60.555 0 0 0-1.843 12.111c-.175 4.037.176 6.758.878 8.425zm6.406-18.517a5.18 5.18 0 0 1-1.492-3.598c0-1.405.527-2.634 1.492-3.599l.088-.088c.878-.789 1.93-1.316 3.16-1.403.087-1.23.702-2.37 1.491-3.16a5.182 5.182 0 0 1 3.599-1.492c1.404 0 2.632.526 3.598 1.492l.087.088c.79.79 1.317 1.93 1.405 3.072 1.228.087 2.281.701 3.159 1.491a5.18 5.18 0 0 1 1.492 3.599 4.97 4.97 0 0 1-1.492 3.598c-.79.877-1.93 1.404-3.16 1.492-.087 1.228-.701 2.282-1.491 3.159a5.182 5.182 0 0 1-3.598 1.492 4.969 4.969 0 0 1-3.599-1.492c-.877-.79-1.404-1.93-1.492-3.16-1.316-.087-2.37-.614-3.247-1.491zm1.756-3.598c0 .526.263.965.526 1.228.351.35.79.526 1.317.526h1.228c.965 0 1.668.79 1.668 1.668v1.229c0 .526.175.966.526 1.316.351.351.79.527 1.316.527.527 0 .966-.176 1.317-.527.35-.35.526-.79.526-1.316v-1.14c0-.966.79-1.668 1.668-1.668h1.228c.527 0 .966-.176 1.317-.527.35-.35.526-.79.526-1.316 0-.527-.175-.966-.526-1.317-.351-.35-.79-.527-1.317-.527h-1.228c-.965 0-1.668-.79-1.668-1.667v-1.228c0-.44-.175-.878-.438-1.229l-.088-.088c-.351-.35-.79-.526-1.317-.526-.526 0-.965.176-1.316.526-.35.351-.526.79-.526 1.317v1.228c0 .966-.79 1.667-1.668 1.667h-1.229c-.438 0-.877.176-1.228.44l-.088.087c-.351.35-.526.79-.526 1.317zm38.175-9.303a3.071 3.071 0 1 1 0 6.143 3.071 3.071 0 0 1 0-6.143zm0 12.462a3.071 3.071 0 1 1 0 6.143 3.071 3.071 0 0 1 0-6.143zm-6.23-6.231a3.072 3.072 0 1 1-.002 6.144 3.072 3.072 0 0 1 .001-6.144zm12.46 0a3.072 3.072 0 1 1 0 6.144 3.072 3.072 0 0 1 0-6.144z"/></clipPath></defs><g><g><path fill="#7a7a7a" d="M1.404 42.885C.438 40.603 0 37.357.175 32.88c.176-4.037.878-8.512 1.93-12.725.966-4.037 2.37-7.81 3.95-10.707C12.198-1.434 18.868.321 26.855 2.34c2.544.615 5.265 1.316 8.073 1.58h.878c2.808-.264 5.529-.965 8.073-1.58 7.987-2.106 14.656-3.774 20.8 7.02 1.58 2.897 2.896 6.67 3.949 10.708 1.053 4.212 1.755 8.688 1.93 12.725.176 4.564-.263 7.81-1.228 10.004-.965 2.282-2.457 3.51-4.213 4.037-1.667.438-3.598.175-5.616-.615-3.423-1.403-7.372-4.387-11.234-7.985-2.72-2.633-7.81-3.95-12.9-3.95-5.09 0-10.18 1.317-12.9 3.95-3.862 3.598-7.812 6.582-11.234 7.985-2.019.879-3.95 1.053-5.617.615-1.843-.526-3.247-1.842-4.212-3.949zM4.3 41.393c.526 1.228 1.228 1.931 2.106 2.194.965.351 2.194.087 3.598-.439 2.984-1.14 6.582-3.95 10.18-7.284 3.423-3.159 9.303-4.826 15.183-4.826 5.88 0 11.76 1.667 15.095 5.001 3.51 3.335 7.108 6.056 10.18 7.285 1.404.526 2.632.702 3.598.439.877-.263 1.58-.966 2.106-2.195.79-1.842 1.14-4.563.965-8.6-.175-3.862-.877-8.073-1.843-12.111-.965-3.861-2.194-7.284-3.686-9.917C56.956 2.252 51.34 3.744 44.67 5.41c-2.72.703-5.529 1.405-8.688 1.668H34.665c-3.072-.263-5.88-.965-8.6-1.668-6.67-1.755-12.287-3.16-17.114 5.529-1.492 2.633-2.72 6.144-3.686 9.917a60.555 60.555 0 0 0-1.843 12.111c-.175 4.037.176 6.758.878 8.425zm6.406-18.517a5.18 5.18 0 0 1-1.492-3.598c0-1.405.527-2.634 1.492-3.599l.088-.088c.878-.789 1.93-1.316 3.16-1.403.087-1.23.702-2.37 1.491-3.16a5.182 5.182 0 0 1 3.599-1.492c1.404 0 2.632.526 3.598 1.492l.087.088c.79.79 1.317 1.93 1.405 3.072 1.228.087 2.281.701 3.159 1.491a5.18 5.18 0 0 1 1.492 3.599 4.97 4.97 0 0 1-1.492 3.598c-.79.877-1.93 1.404-3.16 1.492-.087 1.228-.701 2.282-1.491 3.159a5.182 5.182 0 0 1-3.598 1.492 4.969 4.969 0 0 1-3.599-1.492c-.877-.79-1.404-1.93-1.492-3.16-1.316-.087-2.37-.614-3.247-1.491zm1.756-3.598c0 .526.263.965.526 1.228.351.35.79.526 1.317.526h1.228c.965 0 1.668.79 1.668 1.668v1.229c0 .526.175.966.526 1.316.351.351.79.527 1.316.527.527 0 .966-.176 1.317-.527.35-.35.526-.79.526-1.316v-1.14c0-.966.79-1.668 1.668-1.668h1.228c.527 0 .966-.176 1.317-.527.35-.35.526-.79.526-1.316 0-.527-.175-.966-.526-1.317-.351-.35-.79-.527-1.317-.527h-1.228c-.965 0-1.668-.79-1.668-1.667v-1.228c0-.44-.175-.878-.438-1.229l-.088-.088c-.351-.35-.79-.526-1.317-.526-.526 0-.965.176-1.316.526-.35.351-.526.79-.526 1.317v1.228c0 .966-.79 1.667-1.668 1.667h-1.229c-.438 0-.877.176-1.228.44l-.088.087c-.351.35-.526.79-.526 1.317zm38.175-9.303a3.071 3.071 0 1 1 0 6.143 3.071 3.071 0 0 1 0-6.143zm0 12.462a3.071 3.071 0 1 1 0 6.143 3.071 3.071 0 0 1 0-6.143zm-6.23-6.231a3.072 3.072 0 1 1-.002 6.144 3.072 3.072 0 0 1 .001-6.144zm12.46 0a3.072 3.072 0 1 1 0 6.144 3.072 3.072 0 0 1 0-6.144z"/></g><g clip-path="url(#2knka)"><path fill="#ff4342" d="M50.829 8.992c6.567 0 11.89 5.324 11.89 11.891 0 6.566-5.323 11.89-11.89 11.89s-11.89-5.324-11.89-11.89c0-6.567 5.324-11.89 11.89-11.89z"/></g></g></svg>