<svg xmlns="http://www.w3.org/2000/svg" width="82" height="71" viewBox="0 0 82 71"><defs><clipPath id="4lhva"><path d="M71.04 31.739a1.245 1.245 0 0 1 1.764 0l8.444 8.443a1.247 1.247 0 0 1 0 1.763l-4.626 4.626a1.274 1.274 0 0 1-.035.035l-18.981 18.98a1.242 1.242 0 0 1-.512.31l-12.64 4.213a1.246 1.246 0 0 1-1.577-1.576l4.138-12.414H9.186c-4.614 0-8.37-3.755-8.37-8.37V8.823c0-4.616 3.756-8.37 8.37-8.37h46.298c4.616 0 8.37 3.754 8.37 8.37v30.104zm7.563 9.325l-6.68-6.681-2.882 2.881 6.681 6.68zM50.044 56.262l6.68 6.68L73.96 45.708l-6.68-6.68-3.771 3.77a1.246 1.246 0 0 1-.039.04L50.566 55.74a1.272 1.272 0 0 1-.027.026zM46.03 66.956l8.387-2.796-5.59-5.59zM61.361 8.822a5.883 5.883 0 0 0-5.877-5.877H9.186A5.883 5.883 0 0 0 3.31 8.822v6.115H61.36zM3.31 47.75a5.882 5.882 0 0 0 5.876 5.875h39.969L61.36 41.42v-23.99H3.31zM15.207 9a3.488 3.488 0 0 1 3.484-3.485 3.488 3.488 0 0 1 3.484 3.484 3.487 3.487 0 0 1-3.484 3.484 3.488 3.488 0 0 1-3.484-3.484zM17.7 9a.992.992 0 0 0 1.983 0A.992.992 0 0 0 17.7 9zM5.157 8.967A3.487 3.487 0 0 1 8.64 5.484a3.487 3.487 0 0 1 3.484 3.484A3.487 3.487 0 0 1 8.64 12.45a3.487 3.487 0 0 1-3.483-3.483zm2.493 0a.992.992 0 0 0 1.982 0 .992.992 0 0 0-1.982 0zm17.608.063a3.488 3.488 0 0 1 3.484-3.485 3.488 3.488 0 0 1 3.484 3.485 3.487 3.487 0 0 1-3.484 3.483 3.487 3.487 0 0 1-3.484-3.483zm2.493 0a.992.992 0 0 0 1.982 0 .992.992 0 0 0-1.982 0z"/></clipPath></defs><g><g><path fill="#7a7a7a" d="M71.04 31.739a1.245 1.245 0 0 1 1.764 0l8.444 8.443a1.247 1.247 0 0 1 0 1.763l-4.626 4.626a1.274 1.274 0 0 1-.035.035l-18.981 18.98a1.242 1.242 0 0 1-.512.31l-12.64 4.213a1.246 1.246 0 0 1-1.577-1.576l4.138-12.414H9.186c-4.614 0-8.37-3.755-8.37-8.37V8.823c0-4.616 3.756-8.37 8.37-8.37h46.298c4.616 0 8.37 3.754 8.37 8.37v30.104zm7.563 9.325l-6.68-6.681-2.882 2.881 6.681 6.68zM50.044 56.262l6.68 6.68L73.96 45.708l-6.68-6.68-3.771 3.77a1.246 1.246 0 0 1-.039.04L50.566 55.74a1.272 1.272 0 0 1-.027.026zM46.03 66.956l8.387-2.796-5.59-5.59zM61.361 8.822a5.883 5.883 0 0 0-5.877-5.877H9.186A5.883 5.883 0 0 0 3.31 8.822v6.115H61.36zM3.31 47.75a5.882 5.882 0 0 0 5.876 5.875h39.969L61.36 41.42v-23.99H3.31zM15.207 9a3.488 3.488 0 0 1 3.484-3.485 3.488 3.488 0 0 1 3.484 3.484 3.487 3.487 0 0 1-3.484 3.484 3.488 3.488 0 0 1-3.484-3.484zM17.7 9a.992.992 0 0 0 1.983 0A.992.992 0 0 0 17.7 9zM5.157 8.967A3.487 3.487 0 0 1 8.64 5.484a3.487 3.487 0 0 1 3.484 3.484A3.487 3.487 0 0 1 8.64 12.45a3.487 3.487 0 0 1-3.483-3.483zm2.493 0a.992.992 0 0 0 1.982 0 .992.992 0 0 0-1.982 0zm17.608.063a3.488 3.488 0 0 1 3.484-3.485 3.488 3.488 0 0 1 3.484 3.485 3.487 3.487 0 0 1-3.484 3.483 3.487 3.487 0 0 1-3.484-3.483zm2.493 0a.992.992 0 0 0 1.982 0 .992.992 0 0 0-1.982 0z"/></g><g clip-path="url(#4lhva)"><path fill="#ff4342" d="M46.453 56.45L42.78 69.413l.81 1.782s22.74-1.998 23.063-2.646c.324-.648 18.58-23.55 18.743-24.198.162-.648-7.832-13.395-7.832-13.395l-5.617-.594-7.832 8.21z"/></g></g></svg>